# xmcd
#
# Track frame offsets:
#	150
#	13732
#	26902
#	39680
#	54465
#	67937
#	80530
#	93955
#	106532
#	117477
#	130800
#	144467
#	157595
#	170512
#	181085
#	200482
#	212115
#	223347
#	248482
#	261982
#	272530
#
# Disc length: 3818 seconds
#
# Revision: 1
# Processed by: cddbd v1.5.1PL2 Copyright (c) Steve Scherf et al.
# Submitted via: audiograbber 1.83.01
#
DISCID=240ee815
DTITLE=Etta James - Her Best
DYEAR=1900
DGENRE=
TTITLE0=At Last
TTITLE1=All I Could Do Is Cry
TTITLE2=If I Can't Have You
TTITLE3=A Sunday Kind Of Love
TTITLE4=My Dearest Darling
TTITLE5=Something's Got A Hold On Me
TTITLE6=Trust In Me
TTITLE7=Next Door To The Blues
TTITLE8=Don't Cry Baby
TTITLE9=Fool  That I Am
TTITLE10=Two Sides To Every Story
TTITLE11=Pushover
TTITLE12=Stop The Wedding
TTITLE13=In The Basement
TTITLE14=Baby What You Want Me To Do
TTITLE15=I'd Rather Go Blind
TTITLE16=Security
TTITLE17=All The Way Down
TTITLE18=Loser's Weepers
TTITLE19=Tell Mama
TTITLE20=I Just Want To make Love To To You
EXTD=
EXTT0=
EXTT1=
EXTT2=
EXTT3=
EXTT4=
EXTT5=
EXTT6=
EXTT7=
EXTT8=
EXTT9=
EXTT10=
EXTT11=
EXTT12=
EXTT13=
EXTT14=
EXTT15=
EXTT16=
EXTT17=
EXTT18=
EXTT19=
EXTT20=
PLAYORDER=
